<svg xmlns="http://www.w3.org/2000/svg" width="592" height="356" viewBox="0 0 592 356" role="img" aria-label="Mindmap"><style>svg{font-family:Arial, sans-serif;font-size:13px;background:none}.mindmap-link{fill:none}.mindmap-node.boxless .mindmap-label{font-weight:normal}</style><rect x="0" y="0" width="592" height="356" fill="none"/><path d="M310 178 C335 178 335 94 360 94" class="mindmap-link" stroke="#181818" stroke-width="1"/><path d="M444 94 C469 94 469 38 494 38" class="mindmap-link" stroke="#181818" stroke-width="1"/><path d="M444 94 C469 94 469 94 494 94" class="mindmap-link" stroke="#181818" stroke-width="1"/><path d="M444 94 C469 94 469 150 494 150" class="mindmap-link" stroke="#181818" stroke-width="1"/><path d="M310 178 C335 178 335 262 360 262" class="mindmap-link" stroke="#181818" stroke-width="1"/><path d="M436 262 C461 262 461 206 486 206" class="mindmap-link" stroke="#181818" stroke-width="1"/><path d="M436 262 C461 262 461 262 486 262" class="mindmap-link" stroke="#181818" stroke-width="1"/><path d="M436 262 C461 262 461 318 486 318" class="mindmap-link" stroke="#181818" stroke-width="1"/><path d="M263 178 C238 178 238 150 213 150" class="mindmap-link" stroke="#181818" stroke-width="1"/><path d="M134 150 C109 150 109 150 84 150" class="mindmap-link" stroke="#181818" stroke-width="1"/><path d="M263 178 C238 178 238 206 213 206" class="mindmap-link" stroke="#181818" stroke-width="1"/><path d="M142 206 C117 206 117 206 92 206" class="mindmap-link" stroke="#181818" stroke-width="1"/><g class="mindmap-node box" data-idea-index="0"><rect x="263" y="160" width="47" height="36" rx="12.5" fill="#F1F1F1" stroke="#181818" stroke-width="1.5"/><text x="286" y="184" text-anchor="middle" fill="#000000" font-size="14px" class="mindmap-label"><tspan x="286" dy="0" textLength="23" lengthAdjust="spacing"><tspan>uml</tspan></tspan></text></g><g class="mindmap-node box" data-idea-index="1"><rect x="360" y="76" width="84" height="36" rx="12.5" fill="#F1F1F1" stroke="#181818" stroke-width="1.5"/><text x="402" y="100" text-anchor="middle" fill="#000000" font-size="14px" class="mindmap-label"><tspan x="402" dy="0" textLength="60" lengthAdjust="spacing"><tspan>Diagrams</tspan></tspan></text></g><g class="mindmap-node box" data-idea-index="2"><rect x="494" y="20" width="88" height="36" rx="12.5" fill="#F1F1F1" stroke="#181818" stroke-width="1.5"/><text x="538" y="44" text-anchor="middle" fill="#000000" font-size="14px" class="mindmap-label"><tspan x="538" dy="0" textLength="64" lengthAdjust="spacing"><tspan>Sequence</tspan></tspan></text></g><g class="mindmap-node box" data-idea-index="3"><rect x="494" y="76" width="60" height="36" rx="12.5" fill="#F1F1F1" stroke="#181818" stroke-width="1.5"/><text x="524" y="100" text-anchor="middle" fill="#000000" font-size="14px" class="mindmap-label"><tspan x="524" dy="0" textLength="36" lengthAdjust="spacing"><tspan>Class</tspan></tspan></text></g><g class="mindmap-node box" data-idea-index="4"><rect x="494" y="132" width="79" height="36" rx="12.5" fill="#F1F1F1" stroke="#181818" stroke-width="1.5"/><text x="533" y="156" text-anchor="middle" fill="#000000" font-size="14px" class="mindmap-label"><tspan x="533" dy="0" textLength="55" lengthAdjust="spacing"><tspan>Use case</tspan></tspan></text></g><g class="mindmap-node box" data-idea-index="5"><rect x="360" y="244" width="76" height="36" rx="12.5" fill="#F1F1F1" stroke="#181818" stroke-width="1.5"/><text x="398" y="268" text-anchor="middle" fill="#000000" font-size="14px" class="mindmap-label"><tspan x="398" dy="0" textLength="52" lengthAdjust="spacing"><tspan>Formats</tspan></tspan></text></g><g class="mindmap-node box" data-idea-index="6"><rect x="486" y="188" width="62" height="36" rx="12.5" fill="#F1F1F1" stroke="#181818" stroke-width="1.5"/><text x="517" y="212" text-anchor="middle" fill="#000000" font-size="14px" class="mindmap-label"><tspan x="517" dy="0" textLength="38" lengthAdjust="spacing"><tspan>JSON</tspan></tspan></text></g><g class="mindmap-node box" data-idea-index="7"><rect x="486" y="244" width="63" height="36" rx="12.5" fill="#F1F1F1" stroke="#181818" stroke-width="1.5"/><text x="517" y="268" text-anchor="middle" fill="#000000" font-size="14px" class="mindmap-label"><tspan x="517" dy="0" textLength="39" lengthAdjust="spacing"><tspan>YAML</tspan></tspan></text></g><g class="mindmap-node box" data-idea-index="8"><rect x="486" y="300" width="63" height="36" rx="12.5" fill="#F1F1F1" stroke="#181818" stroke-width="1.5"/><text x="517" y="324" text-anchor="middle" fill="#000000" font-size="14px" class="mindmap-label"><tspan x="517" dy="0" textLength="39" lengthAdjust="spacing"><tspan>TOML</tspan></tspan></text></g><g class="mindmap-node box" data-idea-index="9"><rect x="134" y="132" width="79" height="36" rx="12.5" fill="#F1F1F1" stroke="#181818" stroke-width="1.5"/><text x="173" y="156" text-anchor="middle" fill="#000000" font-size="14px" class="mindmap-label"><tspan x="173" dy="0" textLength="55" lengthAdjust="spacing"><tspan>Backend</tspan></tspan></text></g><g class="mindmap-node box" data-idea-index="10"><rect x="30" y="132" width="54" height="36" rx="12.5" fill="#F1F1F1" stroke="#181818" stroke-width="1.5"/><text x="57" y="156" text-anchor="middle" fill="#000000" font-size="14px" class="mindmap-label"><tspan x="57" dy="0" textLength="30" lengthAdjust="spacing"><tspan>SVG</tspan></tspan></text></g><g class="mindmap-node box" data-idea-index="11"><rect x="142" y="188" width="71" height="36" rx="12.5" fill="#F1F1F1" stroke="#181818" stroke-width="1.5"/><text x="177" y="212" text-anchor="middle" fill="#000000" font-size="14px" class="mindmap-label"><tspan x="177" dy="0" textLength="47" lengthAdjust="spacing"><tspan>Tooling</tspan></tspan></text></g><g class="mindmap-node box" data-idea-index="12"><rect x="10" y="188" width="82" height="36" rx="12.5" fill="#F1F1F1" stroke="#181818" stroke-width="1.5"/><text x="51" y="212" text-anchor="middle" fill="#000000" font-size="14px" class="mindmap-label"><tspan x="51" dy="0" textLength="58" lengthAdjust="spacing"><tspan>moon test</tspan></tspan></text></g></svg>
