<svg xmlns="http://www.w3.org/2000/svg" width="604" height="356" viewBox="0 0 604 356" role="img" aria-label="Mindmap"><style>svg{font-family:Arial, sans-serif;font-size:13px;background:transparent}.mindmap-link{fill:none}.mindmap-node.boxless .mindmap-label{font-weight:normal}</style><rect x="0" y="0" width="604" height="356" fill="transparent"/><path d="M 318 178 C 343 178 343 94 368 94" stroke="#181818" stroke-width="1" class="mindmap-link"/><path d="M 454 94 C 479 94 479 38 504 38" stroke="#181818" stroke-width="1" class="mindmap-link"/><path d="M 454 94 C 479 94 479 94 504 94" stroke="#181818" stroke-width="1" class="mindmap-link"/><path d="M 454 94 C 479 94 479 150 504 150" stroke="#181818" stroke-width="1" class="mindmap-link"/><path d="M 318 178 C 343 178 343 262 368 262" stroke="#181818" stroke-width="1" class="mindmap-link"/><path d="M 445 262 C 470 262 470 206 495 206" stroke="#181818" stroke-width="1" class="mindmap-link"/><path d="M 445 262 C 470 262 470 262 495 262" stroke="#181818" stroke-width="1" class="mindmap-link"/><path d="M 445 262 C 470 262 470 318 495 318" stroke="#181818" stroke-width="1" class="mindmap-link"/><path d="M 273 178 C 248 178 248 150 223 150" stroke="#181818" stroke-width="1" class="mindmap-link"/><path d="M 143 150 C 118 150 118 150 93 150" stroke="#181818" stroke-width="1" class="mindmap-link"/><path d="M 273 178 C 248 178 248 206 223 206" stroke="#181818" stroke-width="1" class="mindmap-link"/><path d="M 152 206 C 127 206 127 206 102 206" stroke="#181818" stroke-width="1" class="mindmap-link"/><g class="mindmap-node box" data-idea-index="0"><rect x="273" y="160" width="45" height="36" rx="12.5" fill="#F1F1F1" stroke="#181818" stroke-width="1.5"/><text x="283" y="184" text-anchor="start" font-size="14px" textLength="25" lengthAdjust="spacing" fill="#000000" class="mindmap-label">uml</text></g><g class="mindmap-node box" data-idea-index="1"><rect x="368" y="76" width="86" height="36" rx="12.5" fill="#F1F1F1" stroke="#181818" stroke-width="1.5"/><text x="378" y="100" text-anchor="start" font-size="14px" textLength="66" lengthAdjust="spacing" fill="#000000" class="mindmap-label">Diagrams</text></g><g class="mindmap-node box" data-idea-index="2"><rect x="504" y="20" width="90" height="36" rx="12.5" fill="#F1F1F1" stroke="#181818" stroke-width="1.5"/><text x="514" y="44" text-anchor="start" font-size="14px" textLength="70" lengthAdjust="spacing" fill="#000000" class="mindmap-label">Sequence</text></g><g class="mindmap-node box" data-idea-index="3"><rect x="504" y="76" width="59" height="36" rx="12.5" fill="#F1F1F1" stroke="#181818" stroke-width="1.5"/><text x="514" y="100" text-anchor="start" font-size="14px" textLength="39" lengthAdjust="spacing" fill="#000000" class="mindmap-label">Class</text></g><g class="mindmap-node box" data-idea-index="4"><rect x="504" y="132" width="88" height="36" rx="12.5" fill="#F1F1F1" stroke="#181818" stroke-width="1.5"/><text x="514" y="156" text-anchor="start" font-size="14px" textLength="68" lengthAdjust="spacing" fill="#000000" class="mindmap-label">Use case</text></g><g class="mindmap-node box" data-idea-index="5"><rect x="368" y="244" width="77" height="36" rx="12.5" fill="#F1F1F1" stroke="#181818" stroke-width="1.5"/><text x="378" y="268" text-anchor="start" font-size="14px" textLength="57" lengthAdjust="spacing" fill="#000000" class="mindmap-label">Formats</text></g><g class="mindmap-node box" data-idea-index="6"><rect x="495" y="188" width="61" height="36" rx="12.5" fill="#F1F1F1" stroke="#181818" stroke-width="1.5"/><text x="505" y="212" text-anchor="start" font-size="14px" textLength="41" lengthAdjust="spacing" fill="#000000" class="mindmap-label">JSON</text></g><g class="mindmap-node box" data-idea-index="7"><rect x="495" y="244" width="62" height="36" rx="12.5" fill="#F1F1F1" stroke="#181818" stroke-width="1.5"/><text x="505" y="268" text-anchor="start" font-size="14px" textLength="42" lengthAdjust="spacing" fill="#000000" class="mindmap-label">YAML</text></g><g class="mindmap-node box" data-idea-index="8"><rect x="495" y="300" width="62" height="36" rx="12.5" fill="#F1F1F1" stroke="#181818" stroke-width="1.5"/><text x="505" y="324" text-anchor="start" font-size="14px" textLength="42" lengthAdjust="spacing" fill="#000000" class="mindmap-label">TOML</text></g><g class="mindmap-node box" data-idea-index="9"><rect x="143" y="132" width="80" height="36" rx="12.5" fill="#F1F1F1" stroke="#181818" stroke-width="1.5"/><text x="153" y="156" text-anchor="start" font-size="14px" textLength="60" lengthAdjust="spacing" fill="#000000" class="mindmap-label">Backend</text></g><g class="mindmap-node box" data-idea-index="10"><rect x="40" y="132" width="53" height="36" rx="12.5" fill="#F1F1F1" stroke="#181818" stroke-width="1.5"/><text x="50" y="156" text-anchor="start" font-size="14px" textLength="33" lengthAdjust="spacing" fill="#000000" class="mindmap-label">SVG</text></g><g class="mindmap-node box" data-idea-index="11"><rect x="152" y="188" width="71" height="36" rx="12.5" fill="#F1F1F1" stroke="#181818" stroke-width="1.5"/><text x="162" y="212" text-anchor="start" font-size="14px" textLength="51" lengthAdjust="spacing" fill="#000000" class="mindmap-label">Tooling</text></g><g class="mindmap-node box" data-idea-index="12"><rect x="10" y="188" width="92" height="36" rx="12.5" fill="#F1F1F1" stroke="#181818" stroke-width="1.5"/><text x="20" y="212" text-anchor="start" font-size="14px" textLength="72" lengthAdjust="spacing" fill="#000000" class="mindmap-label">moon test</text></g></svg>
