<svg xmlns="http://www.w3.org/2000/svg" width="528" height="193" viewBox="-6 -6 528 193" role="img" aria-label="Use case diagram"><style>svg{font-family:Arial, sans-serif;font-size:13px;background:transparent}
.class-node &gt; rect,.class-node &gt; line{stroke:#181818;stroke-width:1.2}
.relation{stroke:#181818;stroke-width:1.2}
.relation-decoration{stroke-width:1;stroke-linejoin:miter}
.class-node &gt; line,.relation{fill:none}
.class-title{fill:#000000}
.class-stereotype{font-style:italic}
.class-spot{text-anchor:middle;font-size:12px;font-weight:bold;fill:#000000}
.usecase-title{fill:#000000;text-anchor:middle}
.usecase-stereotype{text-anchor:middle;font-style:italic}
.member{fill:#000000}
.relation-label{text-anchor:middle;font-size:13px}</style><style>.package path,.package line{stroke:#181818;stroke-width:1.2}.package-title{fill:#000000;font-weight:bold}.package-stereotype{fill:#000000;font-style:italic}.class-note rect,.class-note path{stroke:#181818;stroke-width:1.2}.note-text{fill:#000000;font-size:13px}</style><g class="actor-node" data-code="Customer"><circle cx="123" cy="9" r="8" style="fill:#F1F1F1;stroke:#181818;stroke-width:1.2"/><path d="M 123 17 L 123 43 M 110 27 L 136 27 M 123 43 L 110 62 M 123 43 L 136 62" style="fill:none;stroke:#181818;stroke-width:1.2"/><text x="123" y="72" text-anchor="start" font-size="14px" font-family="Arial, sans-serif" textLength="61" lengthAdjust="spacing" fill="#000000" class="usecase-title">Customer</text></g><g class="usecase-node" data-code="Browse catalog"><ellipse cx="70" cy="155" rx="70" ry="16" style="fill:#F1F1F1;stroke:#181818;stroke-width:1.2"/><text x="70" y="159" text-anchor="start" font-size="14px" font-family="Arial, sans-serif" textLength="96" lengthAdjust="spacing" fill="#000000" class="usecase-title">Browse catalog</text></g><g class="usecase-node" data-code="Place order"><ellipse cx="237" cy="155" rx="61" ry="15" style="fill:#F1F1F1;stroke:#181818;stroke-width:1.2"/><text x="237" y="159" text-anchor="start" font-size="14px" font-family="Arial, sans-serif" textLength="72" lengthAdjust="spacing" fill="#000000" class="usecase-title">Place order</text></g><g class="actor-node" data-code="Sales clerk"><circle cx="439" cy="9" r="8" style="fill:#F1F1F1;stroke:#181818;stroke-width:1.2"/><path d="M 439 17 L 439 43 M 426 27 L 452 27 M 439 43 L 426 62 M 439 43 L 452 62" style="fill:none;stroke:#181818;stroke-width:1.2"/><text x="439" y="72" text-anchor="start" font-size="14px" font-family="Arial, sans-serif" textLength="69" lengthAdjust="spacing" fill="#000000" class="usecase-title">Sales clerk</text></g><g class="usecase-node" data-code="Approve order"><ellipse cx="439" cy="155" rx="67" ry="16" style="fill:#F1F1F1;stroke:#181818;stroke-width:1.2"/><text x="439" y="159" text-anchor="start" font-size="14px" font-family="Arial, sans-serif" textLength="89" lengthAdjust="spacing" fill="#000000" class="usecase-title">Approve order</text></g><path d="M 105.91048034934498 78 C 96.40760887544307 98.52978837286355 86.90500612555634 119.05899620044907 79.73576833172827 134.54725520787008" style="stroke:#181818" class="relation"/><path d="M 77.63545266248843 139.08472962537874 L 85.04600040112706 132.59752820925502 L 79.73576833172827 134.54725520787008 L 77.78604133311319 129.23702313847127 Z" style="fill:#181818;stroke:#181818;stroke-width:1" class="relation-decoration"/><path d="M 154 70.63377192982456 C 176.5516830716515 93.2843658921412 202.78972915331246 119.63749112328311 219.90935854508004 136.83220660887423" style="stroke:#181818" class="relation"/><path d="M 223.43714760719052 140.3754684300291 L 219.92173675231552 131.17536590226197 L 219.90935854508004 136.83220660887423 L 214.25251783846775 136.81982840163877 Z" style="fill:#181818;stroke:#181818;stroke-width:1" class="relation-decoration"/><path d="M 439.5 78 C 439.5 98.78965911176056 439.5 118.53997633107065 439.5 134" style="stroke:#181818" class="relation"/><path d="M 439.5 139 L 443.5 130 L 439.5 134 L 435.5 130 Z" style="fill:#181818;stroke:#181818;stroke-width:1" class="relation-decoration"/><line x1="298" y1="155" x2="367" y2="155" style="stroke:#181818;stroke-dasharray:6 4" class="relation"/><path d="M 372 155 L 363 151 L 367 155 L 363 159 Z" style="fill:#181818;stroke:#181818;stroke-width:1" class="relation-decoration"/><text x="335.25" y="147.2" text-anchor="middle" font-size="13px" font-family="Arial, sans-serif" textLength="39" lengthAdjust="spacing" fill="#000000" class="relation-label">include</text></svg>
